<svg width="179" height="68" viewBox="0 0 179 68" fill="none" xmlns="http://www.w3.org/2000/svg">
<path d="M0.832 32.776C3.072 32.648 3.52 32.456 3.52 31.24V11.464C3.52 10.248 3.072 10.056 0.832 9.928V9.704H15.808L16.8 14.824H16.576C15.2 11.112 14.208 10.216 10.72 10.216H5.408V20.936H9.952C12.8 20.936 13.376 20.136 13.856 17.192H14.08V25.32H13.856C13.376 22.216 12.8 21.448 9.952 21.448H5.408V31.24C5.408 32.456 5.856 32.648 8.864 32.776V33H0.832V32.776ZM16.762 32.776C18.522 32.648 18.97 32.552 18.97 31.336V21.128C18.97 19.208 18.394 18.792 17.018 18.632V18.44C18.298 18.312 19.706 17.832 20.698 17.32H20.858L20.602 21C21.05 20.296 21.562 19.656 22.17 19.048C23.226 17.96 24.346 17.32 25.498 17.32C26.234 17.32 26.65 17.736 26.65 18.344C26.65 18.952 26.17 19.4 25.562 19.4C24.826 19.4 24.442 18.888 23.802 18.888C22.778 18.888 21.658 19.976 20.666 21.544V31.336C20.666 32.552 21.114 32.648 23.482 32.776V33H16.762V32.776ZM34.605 33.32C30.509 33.32 27.149 30.184 27.149 25.512C27.149 20.584 30.541 17.32 34.861 17.32C38.957 17.32 42.317 20.456 42.317 25.128C42.317 30.056 38.957 33.32 34.605 33.32ZM29.005 24.776C29.005 29.384 31.533 32.84 35.021 32.84C38.093 32.84 40.493 30.248 40.493 25.864C40.493 21.256 37.933 17.8 34.445 17.8C31.373 17.8 29.005 20.392 29.005 24.776ZM63.0558 32.776C64.6878 32.648 65.1358 32.552 65.1358 31.336V22.728C65.1358 19.88 63.9198 18.536 61.7118 18.536C60.0478 18.536 58.6398 19.528 57.1358 20.712C57.2318 21.224 57.2958 21.8 57.2958 22.44V31.336C57.2958 32.552 57.7438 32.648 59.4718 32.776V33H53.5198V32.776C55.1518 32.648 55.5998 32.552 55.5998 31.336V22.728C55.5998 19.88 54.3838 18.536 52.1758 18.536C50.5758 18.536 49.1998 19.464 47.7598 20.584V31.336C47.7598 32.552 48.2078 32.648 49.8078 32.776V33H43.8558V32.776C45.6158 32.648 46.0638 32.552 46.0638 31.336V21.128C46.0638 19.208 45.4878 18.792 44.1118 18.632V18.44C45.3918 18.312 46.7998 17.832 47.7918 17.32H47.9518L47.6958 20.264C49.2638 18.792 50.9278 17.448 53.2958 17.448C55.2478 17.448 56.5278 18.408 57.0398 20.328C58.6718 18.824 60.4318 17.448 62.8318 17.448C65.3918 17.448 66.8318 19.112 66.8318 22.44V31.336C66.8318 32.552 67.2798 32.648 69.0078 32.776V33H63.0558V32.776ZM81.3055 32.776C83.5455 32.648 83.9935 32.456 83.9935 31.24V10.216H81.1455C77.7215 10.216 76.7935 10.92 75.3215 14.824H75.1295L76.1855 9.512C76.8255 9.64 77.9135 9.704 79.1935 9.704H90.6495C91.9295 9.704 93.0175 9.64 93.6575 9.512L94.7455 14.824H94.5215C93.0495 10.92 92.1215 10.216 88.7295 10.216H85.8815V31.24C85.8815 32.456 86.3295 32.648 88.5695 32.776V33H81.3055V32.776ZM92.887 32.776C94.647 32.648 95.095 32.552 95.095 31.336V21.128C95.095 19.208 94.519 18.792 93.143 18.632V18.44C94.423 18.312 95.831 17.832 96.823 17.32H96.983L96.727 21C97.175 20.296 97.687 19.656 98.295 19.048C99.351 17.96 100.471 17.32 101.623 17.32C102.359 17.32 102.775 17.736 102.775 18.344C102.775 18.952 102.295 19.4 101.687 19.4C100.951 19.4 100.567 18.888 99.927 18.888C98.903 18.888 97.783 19.976 96.791 21.544V31.336C96.791 32.552 97.239 32.648 99.607 32.776V33H92.887V32.776ZM113.286 33.256C111.782 33.256 111.43 31.944 111.43 30.536C109.766 32.328 108.294 33.256 106.662 33.256C104.742 33.256 103.366 31.976 103.366 30.12C103.366 28.648 104.198 27.592 107.654 26.568L111.43 25.448V21.928C111.43 19.688 110.438 18.536 108.742 18.536C107.302 18.536 105.19 19.72 105.19 20.392C105.19 20.648 105.446 21.288 105.446 21.736C105.446 22.344 105.062 22.664 104.55 22.664C104.102 22.664 103.686 22.408 103.686 21.896C103.686 21.288 104.262 20.36 105.19 19.528C106.438 18.376 108.134 17.448 109.638 17.448C111.75 17.448 113.126 18.728 113.126 21.576V30.536C113.126 31.496 113.478 32.2 114.278 32.2C114.982 32.2 115.558 31.592 116.07 30.792L116.262 30.92C115.718 32.008 114.79 33.256 113.286 33.256ZM105.062 29.672C105.062 31.208 106.086 32.136 107.558 32.136C108.806 32.136 110.054 31.368 111.43 30.088V25.864L108.07 26.92C105.958 27.592 105.062 28.328 105.062 29.672ZM122.237 41.96C118.749 41.96 116.477 40.424 116.477 37.992C116.477 36.136 117.853 34.344 120.669 33.032H120.637C119.101 33.032 117.821 32.424 117.821 31.048C117.821 29.928 118.845 29.032 120.701 28.04C118.621 27.272 117.149 25.448 117.149 23.016C117.149 19.624 119.837 17.32 123.165 17.32C123.933 17.32 124.669 17.48 125.341 17.672C128.477 18.504 129.341 17.64 130.333 17.64C130.845 17.64 131.229 17.928 131.229 18.344C131.229 18.824 130.845 19.112 130.077 19.112C129.437 19.112 127.901 18.728 126.461 18.248C127.965 19.144 128.989 20.744 128.989 22.76C128.989 26.152 126.301 28.456 122.973 28.456C122.333 28.456 121.757 28.36 121.181 28.2C119.773 28.936 119.133 29.576 119.133 30.344C119.133 31.208 120.029 31.496 121.053 31.496H125.437C129.085 31.496 130.877 33.416 130.877 35.656C130.877 38.92 126.845 41.96 122.237 41.96ZM118.045 37.256C118.045 39.528 119.869 41.096 123.357 41.096C127.293 41.096 129.469 38.888 129.469 36.488C129.469 34.632 128.125 33.032 125.053 33.032H121.437C119.133 34.056 118.045 35.688 118.045 37.256ZM118.781 22.504C118.781 25.992 120.861 27.976 123.293 27.976C125.597 27.976 127.357 26.248 127.357 23.272C127.357 19.784 125.277 17.8 122.845 17.8C120.541 17.8 118.781 19.528 118.781 22.504ZM138.906 33.32C135.066 33.32 131.962 30.344 131.962 25.352C131.962 20.68 135.034 17.32 139.161 17.32C142.714 17.32 144.89 19.464 144.954 23.112H133.722C133.658 23.56 133.626 24.04 133.626 24.552C133.626 29.192 136.314 32.072 139.674 32.072C142.01 32.072 144.058 30.568 145.402 27.976L145.594 28.104C144.25 31.624 141.594 33.32 138.906 33.32ZM133.786 22.6H142.394C142.938 22.6 143.098 22.44 143.098 21.832C143.098 19.976 141.754 17.8 139.002 17.8C136.378 17.8 134.394 19.528 133.786 22.6ZM153.774 33.192C150.126 33.192 147.118 30.28 147.118 25.608C147.118 20.552 150.542 17.448 154.766 17.448C156.334 17.448 157.774 17.832 159.054 18.632V13.224C159.054 10.504 158.798 10.056 157.134 9.896V9.704C158.414 9.576 159.726 9.064 160.782 8.36H160.942C160.75 9.64 160.75 10.664 160.75 13.224V30.152C160.75 31.944 161.07 32.232 162.798 32.232V32.424C161.39 32.52 160.078 32.872 158.99 33.32H158.862L159.118 30.824C157.774 32.072 155.918 33.192 153.774 33.192ZM148.942 24.84C148.942 29.32 151.118 32.136 154.766 32.136C156.078 32.136 157.55 31.624 159.054 30.44V21.608C159.054 19.624 157.262 17.928 154.574 17.928C151.534 17.928 148.942 20.328 148.942 24.84ZM165.883 41.64C164.987 41.64 164.571 41.16 164.571 40.616C164.571 40.104 164.955 39.72 165.531 39.72C166.107 39.72 166.459 40.136 166.811 40.136C167.515 40.136 168.251 39.4 169.179 36.872L170.619 33.096L165.243 20.104C164.603 18.536 164.155 18.024 162.779 17.864V17.64H168.795V17.864C166.491 17.896 166.427 18.472 166.907 19.624L171.451 30.856L175.451 20.36C175.995 18.952 175.739 18.024 173.435 17.864V17.64H178.683V17.864C177.403 18.024 176.603 18.856 176.027 20.424L169.691 37.064C168.475 40.296 167.323 41.64 165.883 41.64Z" fill="#2548C3"/>
<path d="M1.92 59.32C1.216 59.32 0.864 58.84 0.864 58.072C0.864 57.56 1.088 56.568 1.312 55.832L4.608 44.44H1.92L2.176 43.64H4.832L5.568 41.08C5.856 40.056 6.88 39.576 7.328 39.576C7.488 39.576 7.552 39.64 7.552 39.8C7.552 40.056 7.296 40.952 6.688 43.096L6.528 43.64H10.688L10.272 44.44H6.304L3.008 55.8C2.72 56.76 2.624 57.528 3.168 57.528C3.872 57.528 5.472 56.056 7.424 54.136L7.616 54.296C4.992 57.624 3.136 59.32 1.92 59.32ZM12.8818 59.32C10.5778 59.32 9.20175 57.496 9.20175 54.52C9.20175 50.424 12.2098 43.32 16.7858 43.32C19.0898 43.32 20.4658 45.144 20.4658 48.12C20.4658 52.216 17.4258 59.32 12.8818 59.32ZM10.7698 55.704C10.7698 57.368 11.2178 58.84 12.7538 58.84C16.2418 58.84 18.8978 50.168 18.8978 46.936C18.8978 45.272 18.4498 43.8 16.9138 43.8C13.3938 43.8 10.7698 52.472 10.7698 55.704ZM30.3995 58.776C32.7035 58.648 33.1835 58.456 33.5355 57.24L39.5835 36.216H37.0875C33.7595 36.216 32.6075 36.92 30.0475 40.824H29.8235L32.4155 35.512C33.0235 35.64 34.1115 35.704 35.3915 35.704H45.9515C47.2315 35.704 48.3195 35.64 48.9915 35.512L48.5435 40.824H48.3195C47.9995 36.92 47.2635 36.216 43.9355 36.216H41.4715L35.4235 57.24C35.0715 58.456 35.4875 58.648 37.6635 58.776L37.6315 59H30.3675L30.3995 58.776ZM44.1215 59.32C43.7695 59.32 43.5455 59.096 43.5455 58.744C43.5455 58.52 43.6095 58.232 43.7695 57.72L46.9055 46.808C47.1615 45.88 47.3215 45.112 46.9375 45.112C46.5855 45.112 45.8175 45.944 43.8015 48.472L43.6415 48.344C46.0095 44.696 47.1295 43.32 48.2175 43.32C48.7615 43.32 49.0175 43.8 49.0175 44.472C49.0175 45.112 48.6975 46.232 48.4735 47.096L46.7455 52.76H46.8415C48.9535 47.928 51.7695 43.32 53.5615 43.32C54.2015 43.32 54.5215 43.736 54.5215 44.824C54.5215 46.04 54.0415 47.128 53.3375 47.128C52.9855 47.128 52.6975 46.936 52.6975 46.52C52.6975 46.008 53.1135 44.952 52.6015 44.952C51.4175 44.952 47.0975 52.12 45.2415 58.232C45.0175 58.904 44.6335 59.32 44.1215 59.32ZM55.103 59.32C54.527 59.32 54.271 58.84 54.271 58.168C54.271 57.592 54.591 56.376 54.847 55.544L57.375 46.808C57.631 45.88 57.759 45.112 57.407 45.112C57.023 45.112 56.255 45.944 54.239 48.472L54.079 48.344C56.447 44.696 57.631 43.32 58.687 43.32C59.263 43.32 59.519 43.8 59.519 44.472C59.519 45.048 59.199 46.264 58.943 47.096L56.415 55.832C56.159 56.76 56.031 57.528 56.383 57.528C56.767 57.528 57.535 56.696 59.519 54.168L59.711 54.296C57.343 57.944 56.159 59.32 55.103 59.32ZM58.591 37.496C58.591 36.76 59.167 36.152 59.903 36.152C60.607 36.152 61.087 36.664 61.087 37.368C61.087 38.104 60.511 38.712 59.775 38.712C59.071 38.712 58.591 38.2 58.591 37.496ZM62.3583 59.32C61.6543 59.32 61.2703 58.84 61.2703 58.136C61.2703 57.496 61.5583 56.408 61.8143 55.544L64.3423 46.808C64.5983 45.88 64.7263 45.112 64.3743 45.112C63.9903 45.112 63.2223 45.944 61.2383 48.472L61.0463 48.344C63.4143 44.696 64.5983 43.32 65.6543 43.32C66.2303 43.32 66.4863 43.8 66.4863 44.472C66.4863 45.08 66.1663 46.264 65.9103 47.096L63.4143 55.736C63.1263 56.76 62.9983 57.528 63.6063 57.528C65.3983 57.528 70.2623 50.52 72.1503 44.408C72.3743 43.736 72.7583 43.32 73.2383 43.32C73.5903 43.32 73.8143 43.512 73.8143 43.896C73.8143 44.12 73.7823 44.408 73.6223 44.92L70.4543 55.832C70.1983 56.76 70.0703 57.528 70.4223 57.528C70.7743 57.528 71.5423 56.696 73.5583 54.168L73.7503 54.296C71.3503 57.944 70.1983 59.32 69.1103 59.32C68.5663 59.32 68.3103 58.84 68.3103 58.168C68.3103 57.528 68.6302 56.376 68.8542 55.544L70.7423 49.336H70.6143C68.2463 54.36 64.7263 59.32 62.3583 59.32ZM75.6535 59.32C75.2695 59.32 75.0455 59.128 75.0455 58.744C75.0455 58.52 75.1095 58.232 75.2695 57.72L78.4055 46.808C78.6615 45.88 78.8215 45.112 78.4695 45.112C78.0855 45.112 77.3175 45.944 75.3015 48.472L75.1415 48.344C77.5095 44.696 78.6615 43.32 79.7495 43.32C80.3255 43.32 80.5815 43.8 80.5815 44.472C80.5815 45.112 80.2615 46.264 80.0055 47.096L78.1175 53.4H78.1815C80.5815 48.344 84.1015 43.32 86.5015 43.32C87.2055 43.32 87.5895 43.8 87.5895 44.504C87.5895 45.144 87.3335 46.232 87.0775 47.096L85.1575 53.4H85.2535C87.6215 48.344 91.1735 43.32 93.5735 43.32C94.2455 43.32 94.6615 43.8 94.6615 44.504C94.6615 45.144 94.3735 46.232 94.1175 47.096L91.5895 55.832C91.3335 56.76 91.2055 57.528 91.5575 57.528C91.9095 57.528 92.6775 56.696 94.6935 54.168L94.8855 54.296C92.4855 57.944 91.3335 59.32 90.2455 59.32C89.7015 59.32 89.4455 58.84 89.4455 58.168C89.4455 57.592 89.7655 56.376 89.9895 55.544L92.4855 46.904C92.8055 45.88 92.9015 45.112 92.2935 45.112C90.5335 45.112 85.6695 52.12 83.7815 58.232C83.5575 58.904 83.1735 59.32 82.6935 59.32C82.3415 59.32 82.0855 59.096 82.0855 58.744C82.0855 58.52 82.1495 58.232 82.3095 57.72L85.4455 46.904C85.7335 45.88 85.8615 45.112 85.2535 45.112C83.4615 45.112 78.5975 52.12 76.7415 58.232C76.5175 58.904 76.1335 59.32 75.6535 59.32ZM91.6592 67.416C93.4193 67.224 93.9632 67.032 94.2512 65.976L100.075 45.72C98.8273 46.424 97.6113 47.384 96.6193 48.472L96.4593 48.344C97.6753 46.808 98.9873 45.624 100.331 44.76L101.099 42.136C101.387 41.112 102.411 40.632 102.859 40.632C103.019 40.632 103.083 40.696 103.083 40.856C103.083 41.112 102.859 41.912 102.283 43.832C103.211 43.48 104.171 43.32 105.099 43.32C107.723 43.32 108.747 44.952 108.747 47.16C108.747 52.024 103.915 59.192 99.0513 59.192C98.6673 59.192 98.2513 59.192 97.8033 59.16L95.8833 65.848C95.5953 66.904 96.2033 67.032 98.3793 67.096L98.3473 67.32L91.5952 67.64L91.6592 67.416ZM98.3153 57.816C98.3153 58.36 98.5393 58.712 99.1473 58.712C102.955 58.712 107.051 51.832 107.051 47.64C107.051 45.752 106.283 44.408 104.203 44.408C103.531 44.408 102.763 44.568 101.995 44.824L98.6033 56.44C98.4433 56.952 98.3153 57.432 98.3153 57.816ZM109.449 59.32C109.065 59.32 108.841 59.128 108.841 58.744C108.841 58.52 108.905 58.232 109.065 57.72L114.537 38.68C115.241 36.184 115.145 35.928 113.033 35.928L113.097 35.704C114.857 35.608 116.745 35.192 116.937 35.192C117.161 35.192 117.225 35.256 117.225 35.416C117.225 35.608 116.681 37.08 116.201 38.776L113.801 47.096L111.945 53.304H112.041C114.409 48.28 117.961 43.32 120.297 43.32C121.001 43.32 121.417 43.8 121.417 44.504C121.417 45.144 121.129 46.232 120.873 47.096L118.345 55.832C118.089 56.76 117.929 57.528 118.281 57.528C118.665 57.528 119.433 56.696 121.449 54.168L121.609 54.296C119.241 57.944 118.089 59.32 117.001 59.32C116.457 59.32 116.169 58.84 116.169 58.168C116.169 57.592 116.521 56.376 116.745 55.544L119.241 46.904C119.561 45.88 119.657 45.112 119.049 45.112C117.257 45.112 112.393 52.12 110.537 58.232C110.313 58.904 109.929 59.32 109.449 59.32ZM123.05 59.32C122.282 59.32 121.738 58.744 121.738 57.976C121.738 57.24 122.346 56.568 123.114 56.568C123.85 56.568 124.394 57.144 124.394 57.912C124.394 58.648 123.786 59.32 123.05 59.32Z" fill="#2548C3"/>
</svg>
